<?xml version="1.0" encoding="UTF-8" standalone="no"?>
<svg
   width="209.93028mm"
   height="145.79005mm"
   version="1.1"
   viewBox="0 0 793.4375 551.19999"
   id="svg43"
   sodipodi:docname="Lambert2.svg"
   inkscape:version="1.3.2 (091e20e, 2023-11-25, custom)"
   inkscape:export-filename="Lambert2.png"
   inkscape:export-xdpi="96"
   inkscape:export-ydpi="96"
   xmlns:inkscape="http://www.inkscape.org/namespaces/inkscape"
   xmlns:sodipodi="http://sodipodi.sourceforge.net/DTD/sodipodi-0.dtd"
   xmlns="http://www.w3.org/2000/svg"
   xmlns:svg="http://www.w3.org/2000/svg">
  <sodipodi:namedview
     id="namedview43"
     pagecolor="#ffffff"
     bordercolor="#000000"
     borderopacity="0.25"
     inkscape:showpageshadow="2"
     inkscape:pageopacity="0.0"
     inkscape:pagecheckerboard="false"
     inkscape:deskcolor="#d1d1d1"
     inkscape:document-units="mm"
     inkscape:zoom="1"
     inkscape:cx="641.5"
     inkscape:cy="330"
     inkscape:window-width="3840"
     inkscape:window-height="2054"
     inkscape:window-x="-11"
     inkscape:window-y="-11"
     inkscape:window-maximized="1"
     inkscape:current-layer="svg43"
     inkscape:export-bgcolor="#ffffff7e" />
  <defs
     id="defs19">
    <marker
       id="t"
       overflow="visible"
       orient="auto">
      <path
         transform="matrix(-0.8,0,0,-0.8,-10,0)"
         d="M 0,0 5,-5 -12.5,0 5,5 Z"
         fill-opacity="0.9796"
         fill-rule="evenodd"
         stroke="#000000"
         stroke-width="1pt"
         id="path1" />
    </marker>
    <linearGradient
       id="a"
       x1="493.89999"
       x2="493"
       y1="799.59998"
       y2="869.70001"
       gradientTransform="matrix(1.013,0,0,0.5931,5.573,28.88)"
       gradientUnits="userSpaceOnUse">
      <stop
         stop-opacity=".5061"
         offset="0"
         id="stop1" />
      <stop
         stop-opacity="0"
         offset="1"
         id="stop2" />
    </linearGradient>
    <marker
       id="s"
       overflow="visible"
       orient="auto">
      <path
         transform="matrix(-0.8,0,0,-0.8,-10,0)"
         d="M 0,0 5,-5 -12.5,0 5,5 Z"
         fill="#0000fd"
         fill-opacity="0.9796"
         fill-rule="evenodd"
         stroke="#0000f6"
         stroke-width="1pt"
         id="path2" />
    </marker>
    <marker
       id="p"
       overflow="visible"
       orient="auto">
      <path
         transform="matrix(-0.8,0,0,-0.8,-10,0)"
         d="M 0,0 5,-5 -12.5,0 5,5 Z"
         fill="#ff0000"
         fill-opacity="0.9796"
         fill-rule="evenodd"
         stroke="#ff0000"
         stroke-width="1pt"
         id="path3" />
    </marker>
    <marker
       id="c"
       overflow="visible"
       orient="auto">
      <path
         transform="matrix(-0.8,0,0,-0.8,-10,0)"
         d="M 0,0 5,-5 -12.5,0 5,5 Z"
         fill="#ff0000"
         fill-opacity="0.9796"
         fill-rule="evenodd"
         stroke="#ff0000"
         stroke-width="1pt"
         id="path4" />
    </marker>
    <marker
       id="n"
       overflow="visible"
       orient="auto">
      <path
         transform="matrix(-0.8,0,0,-0.8,-10,0)"
         d="M 0,0 5,-5 -12.5,0 5,5 Z"
         fill="#ff0000"
         fill-opacity="0.9796"
         fill-rule="evenodd"
         stroke="#ff0000"
         stroke-width="1pt"
         id="path5" />
    </marker>
    <marker
       id="e"
       overflow="visible"
       orient="auto">
      <path
         transform="matrix(-0.8,0,0,-0.8,-10,0)"
         d="M 0,0 5,-5 -12.5,0 5,5 Z"
         fill="#ff0000"
         fill-opacity="0.9796"
         fill-rule="evenodd"
         stroke="#ff0000"
         stroke-width="1pt"
         id="path6" />
    </marker>
    <marker
       id="r"
       overflow="visible"
       orient="auto">
      <path
         transform="matrix(-0.8,0,0,-0.8,-10,0)"
         d="M 0,0 5,-5 -12.5,0 5,5 Z"
         fill="#ff0000"
         fill-opacity="0.9796"
         fill-rule="evenodd"
         stroke="#ff0000"
         stroke-width="1pt"
         id="path7" />
    </marker>
    <marker
       id="m"
       overflow="visible"
       orient="auto">
      <path
         transform="matrix(-0.8,0,0,-0.8,-10,0)"
         d="M 0,0 5,-5 -12.5,0 5,5 Z"
         fill="#ff0000"
         fill-opacity="0.9796"
         fill-rule="evenodd"
         stroke="#ff0000"
         stroke-width="1pt"
         id="path8" />
    </marker>
    <marker
       id="l"
       overflow="visible"
       orient="auto">
      <path
         transform="matrix(-0.8,0,0,-0.8,-10,0)"
         d="M 0,0 5,-5 -12.5,0 5,5 Z"
         fill="#ff0000"
         fill-opacity="0.9796"
         fill-rule="evenodd"
         stroke="#ff0000"
         stroke-width="1pt"
         id="path9" />
    </marker>
    <marker
       id="j"
       overflow="visible"
       orient="auto">
      <path
         transform="matrix(-0.8,0,0,-0.8,-10,0)"
         d="M 0,0 5,-5 -12.5,0 5,5 Z"
         fill="#ff0000"
         fill-opacity="0.9796"
         fill-rule="evenodd"
         stroke="#ff0000"
         stroke-width="1pt"
         id="path10" />
    </marker>
    <marker
       id="h"
       overflow="visible"
       orient="auto">
      <path
         transform="matrix(-0.8,0,0,-0.8,-10,0)"
         d="M 0,0 5,-5 -12.5,0 5,5 Z"
         fill="#ff0000"
         fill-opacity="0.9796"
         fill-rule="evenodd"
         stroke="#ff0000"
         stroke-width="1pt"
         id="path11" />
    </marker>
    <marker
       id="k"
       overflow="visible"
       orient="auto">
      <path
         transform="matrix(-0.8,0,0,-0.8,-10,0)"
         d="M 0,0 5,-5 -12.5,0 5,5 Z"
         fill="#ff0000"
         fill-opacity="0.9796"
         fill-rule="evenodd"
         stroke="#ff0000"
         stroke-width="1pt"
         id="path12" />
    </marker>
    <marker
       id="g"
       overflow="visible"
       orient="auto">
      <path
         transform="matrix(-0.8,0,0,-0.8,-10,0)"
         d="M 0,0 5,-5 -12.5,0 5,5 Z"
         fill="#ff0000"
         fill-opacity="0.9796"
         fill-rule="evenodd"
         stroke="#ff0000"
         stroke-width="1pt"
         id="path13" />
    </marker>
    <marker
       id="q"
       overflow="visible"
       orient="auto">
      <path
         transform="matrix(-0.8,0,0,-0.8,-10,0)"
         d="M 0,0 5,-5 -12.5,0 5,5 Z"
         fill="#ff0000"
         fill-opacity="0.9796"
         fill-rule="evenodd"
         stroke="#ff0000"
         stroke-width="1pt"
         id="path14" />
    </marker>
    <marker
       id="d"
       overflow="visible"
       orient="auto">
      <path
         transform="matrix(-0.8,0,0,-0.8,-10,0)"
         d="M 0,0 5,-5 -12.5,0 5,5 Z"
         fill="#ff0000"
         fill-opacity="0.9796"
         fill-rule="evenodd"
         stroke="#ff0000"
         stroke-width="1pt"
         id="path15" />
    </marker>
    <marker
       id="f"
       overflow="visible"
       orient="auto">
      <path
         transform="matrix(-0.8,0,0,-0.8,-10,0)"
         d="M 0,0 5,-5 -12.5,0 5,5 Z"
         fill="#ff0000"
         fill-opacity="0.9796"
         fill-rule="evenodd"
         stroke="#ff0000"
         stroke-width="1pt"
         id="path16" />
    </marker>
    <marker
       id="b"
       overflow="visible"
       orient="auto">
      <path
         transform="matrix(-0.8,0,0,-0.8,-10,0)"
         d="M 0,0 5,-5 -12.5,0 5,5 Z"
         fill="#ff0000"
         fill-opacity="0.9796"
         fill-rule="evenodd"
         stroke="#ff0000"
         stroke-width="1pt"
         id="path17" />
    </marker>
    <marker
       id="o"
       overflow="visible"
       orient="auto">
      <path
         transform="matrix(-0.8,0,0,-0.8,-10,0)"
         d="M 0,0 5,-5 -12.5,0 5,5 Z"
         fill="#ff0000"
         fill-opacity="0.9796"
         fill-rule="evenodd"
         stroke="#ff0000"
         stroke-width="1pt"
         id="path18" />
    </marker>
    <marker
       id="i"
       overflow="visible"
       orient="auto">
      <path
         transform="matrix(-0.8,0,0,-0.8,-10,0)"
         d="M 0,0 5,-5 -12.5,0 5,5 Z"
         fill="#ff0000"
         fill-opacity="0.9796"
         fill-rule="evenodd"
         stroke="#ff0000"
         stroke-width="1pt"
         id="path19" />
    </marker>
  </defs>
  <rect
     y="0"
     width="793.70001"
     height="551.20001"
     fill="#ffffff"
     fill-rule="evenodd"
     style="paint-order:fill markers stroke"
     id="rect19"
     x="-0.13125379" />
  <g
     stroke-linecap="round"
     id="g21"
     transform="translate(-0.13125281,-1.2624628e-5)">
    <rect
       x="23.540001"
       y="504"
       width="749.79999"
       height="38.209999"
       rx="1.167e-05"
       ry="3.779"
       fill="url(#a)"
       stroke="url(#a)"
       stroke-dasharray="7.75407, 2.58469"
       stroke-width="2.929"
       style="fill:url(#a);stroke:url(#a);paint-order:markers stroke fill"
       id="rect20" />
    <path
       d="M 391.5,504.6 389.489,12.3"
       fill="#ff0000"
       fill-opacity="0.9796"
       marker-end="url(#i)"
       stroke="#ff0000"
       stroke-width="2.444"
       style="paint-order:markers stroke fill"
       id="path20" />
    <path
       d="m 23.98,504.4 h 745.1"
       stroke="#000000"
       stroke-width="3.802"
       style="paint-order:markers stroke fill"
       id="path21" />
  </g>
  <g
     fill="#ff0000"
     fill-opacity="0.9796"
     stroke="#ff0000"
     stroke-linecap="round"
     id="g38"
     transform="translate(-0.13125281,-1.2624628e-5)">
    <g
       stroke-width="2.444"
       id="g29">
      <path
         d="M 391.8,504.5 141.5,297.5"
         marker-end="url(#p)"
         style="paint-order:markers stroke fill"
         id="path22" />
      <path
         d="M 392.4,503.9 172.6,377.9"
         marker-end="url(#c)"
         style="paint-order:markers stroke fill"
         id="path23" />
      <path
         d="M 391.8,504.5 144.4,219.1"
         marker-end="url(#n)"
         style="paint-order:markers stroke fill"
         id="path24" />
      <path
         d="M 391.8,504.5 223.7,446.9"
         marker-end="url(#e)"
         style="paint-order:markers stroke fill"
         id="path25" />
      <path
         d="M 391.8,504.5 298.32,489.84"
         marker-end="url(#r)"
         style="paint-order:markers stroke fill"
         id="path26" />
      <path
         d="M 392.4,503.9 175,135.2"
         marker-end="url(#m)"
         style="paint-order:markers stroke fill"
         id="path27" />
      <path
         d="M 391.8,504.5 227.6,77.8"
         marker-end="url(#l)"
         style="paint-order:markers stroke fill"
         id="path28" />
      <path
         d="M 391.8,504.5 301.97,34"
         marker-end="url(#j)"
         style="paint-order:markers stroke fill"
         id="path29" />
    </g>
    <g
       stroke-width="2.395"
       id="g37">
      <path
         d="M 391.5,504.6 631.8,297.7"
         marker-end="url(#o)"
         style="paint-order:markers stroke fill"
         id="path30" />
      <path
         d="m 390.8,504 211,-126"
         marker-end="url(#b)"
         style="paint-order:markers stroke fill"
         id="path31" />
      <path
         d="M 391.5,504.6 629.1,219.3"
         marker-end="url(#f)"
         style="paint-order:markers stroke fill"
         id="path32" />
      <path
         d="M 391.5,504.6 552.9,447.01"
         marker-end="url(#d)"
         style="paint-order:markers stroke fill"
         id="path33" />
      <path
         d="m 391.5,504.6 89.76,-14.66"
         marker-end="url(#q)"
         style="paint-order:markers stroke fill"
         id="path34" />
      <path
         d="M 390.8,504 599.5,135.4"
         marker-end="url(#g)"
         style="paint-order:markers stroke fill"
         id="path35" />
      <path
         d="M 391.5,504.6 549.2,78"
         marker-end="url(#k)"
         style="paint-order:markers stroke fill"
         id="path36" />
      <path
         d="M 391.5,504.6 477.76,34.2"
         marker-end="url(#h)"
         style="paint-order:markers stroke fill"
         id="path37" />
    </g>
  </g>
  <g
     fill-opacity="0.9796"
     id="g39"
     transform="translate(-0.13125281,-1.2624628e-5)">
    <path
       d="m 20.81,14.21 367.4,484.5"
       marker-end="url(#t)"
       stroke="#000000"
       stroke-linecap="round"
       stroke-width="3.801"
       style="paint-order:markers stroke fill"
       id="path38" />
    <path
       d="M 392.4,503.9 667.7,141.2"
       fill="#0000fd"
       marker-end="url(#s)"
       stroke="#0000f6"
       stroke-linecap="round"
       stroke-width="3.801"
       style="paint-order:markers stroke fill"
       id="path39" />
    <rect
       x="272.89999"
       y="102.1"
       width="231.7"
       height="83.089996"
       rx="1.261e-05"
       ry="3.779"
       fill="#ffffff"
       style="paint-order:markers stroke fill"
       id="rect39" />
  </g>
  <g
     font-family="sans-serif"
     font-size="34.21px"
     letter-spacing="0px"
     stroke-dashoffset="42.85"
     stroke-linejoin="round"
     stroke-width="0.7602"
     text-anchor="middle"
     word-spacing="0px"
     id="g43"
     transform="translate(-0.13125281,-1.2624628e-5)">
    <text
       transform="scale(1.006,0.9942)"
       x="657.47919"
       y="95.427109"
       dominant-baseline="auto"
       fill="#0000ff"
       style="line-height:31.7022px;font-variant-ligatures:normal;font-variant-position:normal;font-variant-caps:normal;font-variant-numeric:normal;font-variant-alternates:normal;font-feature-settings:normal;text-indent:0;text-decoration-line:none;text-decoration-style:solid;text-decoration-color:#000000;text-transform:none;text-orientation:mixed;white-space:normal;shape-padding:0;paint-order:stroke fill markers"
       xml:space="preserve"
       id="text40"><tspan
         x="657.47919"
         y="95.427109"
         id="tspan39">specular</tspan><tspan
         x="657.47919"
         y="127.1293"
         id="tspan40">reflection</tspan></text>
    <text
       transform="scale(1.006,0.9942)"
       x="384.68851"
       y="141.4369"
       dominant-baseline="auto"
       fill="#ff0000"
       style="line-height:31.7022px;font-variant-ligatures:normal;font-variant-position:normal;font-variant-caps:normal;font-variant-numeric:normal;font-variant-alternates:normal;font-feature-settings:normal;text-indent:0;text-decoration-line:none;text-decoration-style:solid;text-decoration-color:#000000;text-transform:none;text-orientation:mixed;white-space:normal;shape-padding:0;paint-order:stroke fill markers"
       xml:space="preserve"
       id="text42"><tspan
         x="384.68851"
         y="141.4369"
         id="tspan41">diffuse</tspan><tspan
         x="384.68851"
         y="173.1391"
         id="tspan42">reflection</tspan></text>
    <text
       transform="matrix(0.5972,0.8,-0.8093,0.5903,0,0)"
       x="186.6991"
       y="-19.80213"
       dominant-baseline="auto"
       fill="#000000"
       style="line-height:31.7022px;font-variant-ligatures:normal;font-variant-position:normal;font-variant-caps:normal;font-variant-numeric:normal;font-variant-alternates:normal;font-feature-settings:normal;text-indent:0;text-decoration-line:none;text-decoration-style:solid;text-decoration-color:#000000;text-transform:none;text-orientation:mixed;white-space:normal;shape-padding:0;paint-order:stroke fill markers"
       xml:space="preserve"
       id="text43"><tspan
         x="186.6991"
         y="-19.80213"
         stroke-width="0.7602"
         text-anchor="middle"
         id="tspan43">incident light</tspan></text>
  </g>
</svg>
